<svg width="40" height="40" viewBox="0 0 40 40" fill="none" xmlns="http://www.w3.org/2000/svg">
<path d="M6.01243 9.20326C5.57674 8.65062 5.31191 7.98279 5.25043 7.28176C5.24525 6.99249 5.30039 6.7053 5.41235 6.43852C5.5243 6.17174 5.69061 5.93121 5.90068 5.73226C5.96281 5.66142 6.03893 5.60419 6.12425 5.56418C6.20956 5.52416 6.30223 5.50223 6.39643 5.49976C6.52018 5.49976 6.64393 5.49976 6.75268 5.50651C6.86143 5.51326 7.01968 5.46301 7.17043 5.82526C7.32118 6.18751 7.69543 7.11151 7.74343 7.20451C7.77287 7.25307 7.78967 7.30824 7.79229 7.36497C7.79491 7.42171 7.78327 7.47819 7.75843 7.52926C7.7118 7.64106 7.64942 7.74562 7.57318 7.83976C7.48018 7.94776 7.37743 8.08201 7.29418 8.16451C7.21093 8.24701 7.10443 8.35801 7.21243 8.54401C7.49297 9.0217 7.84277 9.45516 8.25043 9.83026C8.69121 10.2218 9.19674 10.5337 9.74443 10.752C9.93043 10.845 10.0392 10.827 10.1472 10.7055C10.2552 10.584 10.6114 10.1633 10.7352 9.97726C10.8589 9.79126 10.9834 9.82276 11.1537 9.88426C11.3239 9.94576 12.2374 10.3958 12.4227 10.4888C12.6079 10.5818 12.7324 10.6283 12.7789 10.7055C12.8298 11.0042 12.7923 11.3113 12.6709 11.589C12.534 11.8146 12.352 12.0095 12.1362 12.1614C11.9204 12.3133 11.6755 12.419 11.4169 12.4718C11.0262 12.5384 10.6252 12.5127 10.2462 12.3968C9.88656 12.2852 9.53307 12.1548 9.18718 12.006C7.90392 11.3627 6.80991 10.3968 6.01243 9.20326ZM1.53418 16.5L2.58868 12.648C1.77158 11.2301 1.44509 9.5822 1.65983 7.95984C1.87457 6.33748 2.61854 4.83128 3.77641 3.67476C4.93427 2.51825 6.44133 1.77603 8.06394 1.56317C9.68655 1.35032 11.3341 1.67872 12.751 2.49747C14.168 3.31622 15.2753 4.57957 15.9012 6.09165C16.5271 7.60374 16.6367 9.28008 16.213 10.8608C15.7892 12.4415 14.8558 13.8382 13.5575 14.8345C12.2592 15.8307 10.6684 16.3708 9.03193 16.371C7.78949 16.3713 6.56679 16.0603 5.47543 15.4665L1.53418 16.5ZM2.85043 8.93251C2.84859 10.0957 3.17595 11.2356 3.79468 12.2205L3.94468 12.4545L3.32068 14.7345L5.65993 14.121L5.88493 14.2545C6.83718 14.8186 7.92367 15.116 9.03043 15.1155C10.2526 15.1155 11.4473 14.7531 12.4635 14.0742C13.4798 13.3953 14.2719 12.4303 14.7397 11.3012C15.2076 10.1721 15.3301 8.92968 15.0919 7.73096C14.8537 6.53223 14.2654 5.43106 13.4014 4.56665C12.5374 3.70224 11.4365 3.11342 10.2379 2.87462C9.03932 2.63583 7.79682 2.75778 6.66752 3.22507C5.53822 3.69236 4.57283 4.484 3.89341 5.4999C3.21398 6.51581 2.85102 7.71035 2.85043 8.93251Z" fill="#009940"/>
<path d="M9.0036 27.2397C6.92215 27.2397 5.24325 28.9186 5.24325 31C5.24325 33.0815 6.92215 34.7604 9.0036 34.7604C11.085 34.7604 12.7639 33.0815 12.7639 31C12.7639 28.9186 11.085 27.2397 9.0036 27.2397ZM9.0036 33.4447C7.65851 33.4447 6.55888 32.3484 6.55888 31C6.55888 29.6517 7.65524 28.5553 9.0036 28.5553C10.352 28.5553 11.4483 29.6517 11.4483 31C11.4483 32.3484 10.3487 33.4447 9.0036 33.4447ZM13.7949 27.0859C13.7949 27.5735 13.4021 27.9629 12.9178 27.9629C12.4301 27.9629 12.0407 27.5702 12.0407 27.0859C12.0407 26.6015 12.4334 26.2088 12.9178 26.2088C13.4021 26.2088 13.7949 26.6015 13.7949 27.0859ZM16.2854 27.976C16.2298 26.8011 15.9614 25.7604 15.1007 24.903C14.2432 24.0455 13.2025 23.7771 12.0276 23.7182C10.8167 23.6495 7.18724 23.6495 5.97634 23.7182C4.80471 23.7739 3.76398 24.0422 2.90326 24.8997C2.04254 25.7571 1.77745 26.7979 1.71854 27.9728C1.64981 29.1837 1.64981 32.8131 1.71854 34.024C1.77417 35.1989 2.04254 36.2396 2.90326 37.0971C3.76398 37.9545 4.80143 38.2229 5.97634 38.2818C7.18724 38.3505 10.8167 38.3505 12.0276 38.2818C13.2025 38.2262 14.2432 37.9578 15.1007 37.0971C15.9581 36.2396 16.2265 35.1989 16.2854 34.024C16.3541 32.8131 16.3541 29.1869 16.2854 27.976ZM14.721 35.3233C14.4658 35.9647 13.9716 36.4589 13.3269 36.7175C12.3614 37.1004 10.0705 37.012 9.0036 37.012C7.93669 37.012 5.64252 37.0971 4.68034 36.7175C4.03889 36.4622 3.54471 35.968 3.28617 35.3233C2.90326 34.3578 2.99162 32.0669 2.99162 31C2.99162 29.9331 2.90653 27.6389 3.28617 26.6768C3.54144 26.0353 4.03562 25.5411 4.68034 25.2826C5.64579 24.8997 7.93669 24.988 9.0036 24.988C10.0705 24.988 12.3647 24.903 13.3269 25.2826C13.9683 25.5379 14.4625 26.032 14.721 26.6768C15.1039 27.6422 15.0156 29.9331 15.0156 31C15.0156 32.0669 15.1039 34.3611 14.721 35.3233Z" fill="#2F4559"/>
<path d="M31 2.33333C34.676 2.33333 37.6667 5.324 37.6667 9C37.6667 12.676 34.676 15.6667 31 15.6667C27.324 15.6667 24.3333 12.676 24.3333 9C24.3333 5.324 27.324 2.33333 31 2.33333ZM31 1C26.582 1 23 4.582 23 9C23 13.418 26.582 17 31 17C35.418 17 39 13.418 39 9C39 4.582 35.418 1 31 1ZM29.6667 7.66667H28.3333V9H29.6667V13H31.6667V9H32.88L33 7.66667H31.6667V7.11133C31.6667 6.79267 31.7307 6.66667 32.0387 6.66667H33V5H31.3973C30.1987 5 29.6667 5.528 29.6667 6.53867V7.66667Z" fill="#176BF3"/>
<path d="M38.5 24.25H23.5C23.3011 24.25 23.1103 24.329 22.9697 24.4697C22.829 24.6103 22.75 24.8011 22.75 25V37C22.75 37.1989 22.829 37.3897 22.9697 37.5303C23.1103 37.671 23.3011 37.75 23.5 37.75H38.5C38.6989 37.75 38.8897 37.671 39.0303 37.5303C39.171 37.3897 39.25 37.1989 39.25 37V25C39.25 24.8011 39.171 24.6103 39.0303 24.4697C38.8897 24.329 38.6989 24.25 38.5 24.25ZM37.75 36.25H24.25V29.1077L30.721 31.6967C30.9002 31.7678 31.0998 31.7678 31.279 31.6967L37.75 29.1077V36.25ZM37.75 27.4922L31 30.1923L24.25 27.4922V25.75H37.75V27.4922Z" fill="#8F99A3"/>
</svg>
