<svg width="40" height="40" viewBox="0 0 40 40" fill="none" xmlns="http://www.w3.org/2000/svg">
<path d="M32.8837 27.7716C33.7085 26.7506 34.1611 25.4792 34.167 24.1666C34.167 22.6195 33.5524 21.1358 32.4584 20.0419C31.3645 18.9479 29.8808 18.3333 28.3337 18.3333C26.7866 18.3333 25.3028 18.9479 24.2089 20.0419C23.1149 21.1358 22.5003 22.6195 22.5003 24.1666C22.5062 25.4792 22.9589 26.7506 23.7837 27.7716C22.2549 28.5564 20.9524 29.7194 20.0003 31.15C19.0482 29.7194 17.7458 28.5564 16.217 27.7716C17.0418 26.7506 17.4944 25.4792 17.5003 24.1666C17.5003 22.6195 16.8857 21.1358 15.7918 20.0419C14.6978 18.9479 13.2141 18.3333 11.667 18.3333C10.1199 18.3333 8.63616 18.9479 7.5422 20.0419C6.44824 21.1358 5.83366 22.6195 5.83366 24.1666C5.83958 25.4792 6.29219 26.7506 7.11699 27.7716C5.47794 28.6091 4.10182 29.8827 3.14022 31.4522C2.17861 33.0216 1.66882 34.826 1.66699 36.6666C1.66699 37.1087 1.84259 37.5326 2.15515 37.8452C2.46771 38.1577 2.89163 38.3333 3.33366 38.3333H36.667C37.109 38.3333 37.5329 38.1577 37.8455 37.8452C38.1581 37.5326 38.3337 37.1087 38.3337 36.6666C38.3318 34.826 37.822 33.0216 36.8604 31.4522C35.8988 29.8827 34.5227 28.6091 32.8837 27.7716ZM11.667 21.6666C12.1614 21.6666 12.6448 21.8133 13.0559 22.088C13.467 22.3627 13.7875 22.7531 13.9767 23.2099C14.1659 23.6668 14.2154 24.1694 14.119 24.6544C14.0225 25.1393 13.7844 25.5848 13.4348 25.9344C13.0851 26.284 12.6397 26.5221 12.1547 26.6186C11.6698 26.7151 11.1671 26.6656 10.7103 26.4763C10.2535 26.2871 9.86302 25.9667 9.58832 25.5556C9.31361 25.1444 9.16699 24.6611 9.16699 24.1666C9.16699 23.5036 9.43038 22.8677 9.89922 22.3989C10.3681 21.93 11.004 21.6666 11.667 21.6666ZM5.21199 35C5.58147 33.5689 6.41602 32.3012 7.58446 31.3961C8.75291 30.491 10.189 29.9999 11.667 29.9999C13.145 29.9999 14.5811 30.491 15.7495 31.3961C16.918 32.3012 17.7525 33.5689 18.122 35H5.21199ZM28.3337 21.6666C28.8281 21.6666 29.3115 21.8133 29.7226 22.088C30.1337 22.3627 30.4541 22.7531 30.6434 23.2099C30.8326 23.6668 30.8821 24.1694 30.7856 24.6544C30.6892 25.1393 30.4511 25.5848 30.1014 25.9344C29.7518 26.284 29.3063 26.5221 28.8214 26.6186C28.3364 26.7151 27.8338 26.6656 27.3769 26.4763C26.9201 26.2871 26.5297 25.9667 26.255 25.5556C25.9803 25.1444 25.8337 24.6611 25.8337 24.1666C25.8337 23.5036 26.097 22.8677 26.5659 22.3989C27.0347 21.93 27.6706 21.6666 28.3337 21.6666ZM21.8787 35C22.2481 33.5689 23.0827 32.3012 24.2511 31.3961C25.4196 30.491 26.8557 29.9999 28.3337 29.9999C29.8116 29.9999 31.2477 30.491 32.4162 31.3961C33.5846 32.3012 34.4192 33.5689 34.7887 35H21.8787Z" fill="#8F99A3"/>
<path d="M18.3337 16.6667V11.6667H13.3337C12.8916 11.6667 12.4677 11.4911 12.1551 11.1785C11.8426 10.866 11.667 10.442 11.667 10C11.667 9.55799 11.8426 9.13407 12.1551 8.82151C12.4677 8.50895 12.8916 8.33335 13.3337 8.33335H18.3337V3.33335C18.3337 2.89133 18.5093 2.4674 18.8218 2.15484C19.1344 1.84228 19.5583 1.66669 20.0003 1.66669C20.4424 1.66669 20.8663 1.84228 21.1788 2.15484C21.4914 2.4674 21.667 2.89133 21.667 3.33335V8.33335H26.667C27.109 8.33335 27.5329 8.50895 27.8455 8.82151C28.1581 9.13407 28.3337 9.55799 28.3337 10C28.3337 10.442 28.1581 10.866 27.8455 11.1785C27.5329 11.4911 27.109 11.6667 26.667 11.6667H21.667V16.6667C21.667 17.1087 21.4914 17.5326 21.1788 17.8452C20.8663 18.1578 20.4424 18.3334 20.0003 18.3334C19.5583 18.3334 19.1344 18.1578 18.8218 17.8452C18.5093 17.5326 18.3337 17.1087 18.3337 16.6667Z" fill="#6A8EAF"/>
</svg>
