<svg width="40" height="40" viewBox="0 0 40 40" fill="none" xmlns="http://www.w3.org/2000/svg">
<path d="M1.6665 36.6667V13.3333C1.66652 13.093 1.71851 12.8555 1.81891 12.6372C1.91931 12.4188 2.06575 12.2248 2.24817 12.0683L13.9148 2.06832C14.2167 1.81011 14.6009 1.66821 14.9982 1.66821C15.3954 1.66821 15.7796 1.81011 16.0815 2.06832L27.7482 12.0683C27.9312 12.2245 28.0783 12.4184 28.1792 12.6367C28.2802 12.8551 28.3327 13.0927 28.3332 13.3333V25C28.3332 25.442 28.1576 25.8659 27.845 26.1785C27.5325 26.4911 27.1085 26.6667 26.6665 26.6667C26.2245 26.6667 25.8006 26.4911 25.488 26.1785C25.1754 25.8659 24.9998 25.442 24.9998 25V14.1L14.9998 5.52832L4.99984 14.1V35H24.9998C25.4419 35 25.8658 35.1756 26.1783 35.4881C26.4909 35.8007 26.6665 36.2246 26.6665 36.6667C26.6665 37.1087 26.4909 37.5326 26.1783 37.8452C25.8658 38.1577 25.4419 38.3333 24.9998 38.3333H3.33317C2.89114 38.3333 2.46722 38.1577 2.15466 37.8452C1.8421 37.5326 1.6665 37.1087 1.6665 36.6667Z" fill="#8F99A3"/>
<path d="M11.6665 15C11.6665 15.6592 11.862 16.3037 12.2283 16.8519C12.5945 17.4 13.1151 17.8273 13.7242 18.0796C14.3333 18.3318 15.0035 18.3979 15.6501 18.2692C16.2967 18.1406 16.8907 17.8232 17.3569 17.357C17.823 16.8908 18.1405 16.2969 18.2691 15.6503C18.3977 15.0037 18.3317 14.3334 18.0794 13.7243C17.8271 13.1153 17.3999 12.5947 16.8517 12.2284C16.3036 11.8621 15.6591 11.6666 14.9998 11.6666C14.1158 11.6666 13.2679 12.0178 12.6428 12.6429C12.0177 13.2681 11.6665 14.1159 11.6665 15ZM38.3332 31.6666C38.3332 31.2246 38.1576 30.8007 37.845 30.4881C37.5325 30.1756 37.1085 30 36.6665 30H33.3332V26.6666C33.3332 26.2246 33.1576 25.8007 32.845 25.4881C32.5325 25.1756 32.1085 25 31.6665 25C31.2245 25 30.8006 25.1756 30.488 25.4881C30.1754 25.8007 29.9998 26.2246 29.9998 26.6666V30H26.6665C26.2245 30 25.8006 30.1756 25.488 30.4881C25.1754 30.8007 24.9998 31.2246 24.9998 31.6666C24.9998 32.1087 25.1754 32.5326 25.488 32.8451C25.8006 33.1577 26.2245 33.3333 26.6665 33.3333H29.9998V36.6666C29.9998 37.1087 30.1754 37.5326 30.488 37.8451C30.8006 38.1577 31.2245 38.3333 31.6665 38.3333C32.1085 38.3333 32.5325 38.1577 32.845 37.8451C33.1576 37.5326 33.3332 37.1087 33.3332 36.6666V33.3333H36.6665C37.1085 33.3333 37.5325 33.1577 37.845 32.8451C38.1576 32.5326 38.3332 32.1087 38.3332 31.6666Z" fill="#6A8EAF"/>
</svg>
