<svg width="40" height="40" viewBox="0 0 40 40" fill="none" xmlns="http://www.w3.org/2000/svg">
<path d="M24.9998 13.3334C24.9998 13.7754 24.8242 14.1993 24.5117 14.5119C24.1991 14.8244 23.7752 15 23.3332 15H9.99984C9.55781 15 9.13389 14.8244 8.82133 14.5119C8.50876 14.1993 8.33317 13.7754 8.33317 13.3334C8.33317 12.8913 8.50876 12.4674 8.82133 12.1548C9.13389 11.8423 9.55781 11.6667 9.99984 11.6667H23.3332C23.7752 11.6667 24.1991 11.8423 24.5117 12.1548C24.8242 12.4674 24.9998 12.8913 24.9998 13.3334ZM23.3332 18.3334H9.99984C9.55781 18.3334 9.13389 18.5089 8.82133 18.8215C8.50876 19.1341 8.33317 19.558 8.33317 20C8.33317 20.442 8.50876 20.866 8.82133 21.1785C9.13389 21.4911 9.55781 21.6667 9.99984 21.6667H23.3332C23.7752 21.6667 24.1991 21.4911 24.5117 21.1785C24.8242 20.866 24.9998 20.442 24.9998 20C24.9998 19.558 24.8242 19.1341 24.5117 18.8215C24.1991 18.5089 23.7752 18.3334 23.3332 18.3334ZM16.6665 25H9.99984C9.55781 25 9.13389 25.1756 8.82133 25.4882C8.50876 25.8007 8.33317 26.2247 8.33317 26.6667C8.33317 27.1087 8.50876 27.5326 8.82133 27.8452C9.13389 28.1578 9.55781 28.3334 9.99984 28.3334H16.6665C17.1085 28.3334 17.5325 28.1578 17.845 27.8452C18.1576 27.5326 18.3332 27.1087 18.3332 26.6667C18.3332 26.2247 18.1576 25.8007 17.845 25.4882C17.5325 25.1756 17.1085 25 16.6665 25ZM38.3332 20V33.3334C38.3332 34.6594 37.8064 35.9312 36.8687 36.8689C35.931 37.8066 34.6592 38.3334 33.3332 38.3334H6.6665C5.34042 38.3334 4.06865 37.8066 3.13097 36.8689C2.19329 35.9312 1.6665 34.6594 1.6665 33.3334V6.66669C1.6665 5.3406 2.19329 4.06883 3.13097 3.13115C4.06865 2.19347 5.34042 1.66669 6.6665 1.66669H26.6665C27.9926 1.66669 29.2644 2.19347 30.202 3.13115C31.1397 4.06883 31.6665 5.3406 31.6665 6.66669V18.3334H36.6665C37.1085 18.3334 37.5325 18.5089 37.845 18.8215C38.1576 19.1341 38.3332 19.558 38.3332 20ZM28.3332 6.66669C28.3332 6.22466 28.1576 5.80074 27.845 5.48818C27.5325 5.17561 27.1085 5.00002 26.6665 5.00002H6.6665C6.22448 5.00002 5.80055 5.17561 5.48799 5.48818C5.17543 5.80074 4.99984 6.22466 4.99984 6.66669V33.3334C4.99984 33.7754 5.17543 34.1993 5.48799 34.5119C5.80055 34.8244 6.22448 35 6.6665 35H28.3332V6.66669ZM34.9998 21.6667H31.6665V35H33.3332C33.7752 35 34.1991 34.8244 34.5117 34.5119C34.8242 34.1993 34.9998 33.7754 34.9998 33.3334V21.6667Z" fill="#8F99A3"/>
<path d="M25.0002 13.3334C25.0002 13.7754 24.8246 14.1993 24.512 14.5119C24.1994 14.8244 23.7755 15 23.3335 15H10.0002C9.55814 15 9.13421 14.8244 8.82165 14.5119C8.50909 14.1993 8.3335 13.7754 8.3335 13.3334C8.3335 12.8913 8.50909 12.4674 8.82165 12.1548C9.13421 11.8423 9.55814 11.6667 10.0002 11.6667H23.3335C23.7755 11.6667 24.1994 11.8423 24.512 12.1548C24.8246 12.4674 25.0002 12.8913 25.0002 13.3334ZM23.3335 18.3334H10.0002C9.55814 18.3334 9.13421 18.5089 8.82165 18.8215C8.50909 19.1341 8.3335 19.558 8.3335 20C8.3335 20.442 8.50909 20.866 8.82165 21.1785C9.13421 21.4911 9.55814 21.6667 10.0002 21.6667H23.3335C23.7755 21.6667 24.1994 21.4911 24.512 21.1785C24.8246 20.866 25.0002 20.442 25.0002 20C25.0002 19.558 24.8246 19.1341 24.512 18.8215C24.1994 18.5089 23.7755 18.3334 23.3335 18.3334ZM16.6668 25H10.0002C9.55814 25 9.13421 25.1756 8.82165 25.4882C8.50909 25.8007 8.3335 26.2247 8.3335 26.6667C8.3335 27.1087 8.50909 27.5326 8.82165 27.8452C9.13421 28.1578 9.55814 28.3334 10.0002 28.3334H16.6668C17.1089 28.3334 17.5328 28.1578 17.8453 27.8452C18.1579 27.5326 18.3335 27.1087 18.3335 26.6667C18.3335 26.2247 18.1579 25.8007 17.8453 25.4882C17.5328 25.1756 17.1089 25 16.6668 25Z" fill="#6A8EAF"/>
</svg>
