<svg width="88" height="88" viewBox="0 0 88 88" fill="none" xmlns="http://www.w3.org/2000/svg">
<circle cx="56.5" cy="32" r="24" fill="#A9C0D6"/>
<path d="M39.5061 68.72C36.0501 68.72 32.7381 68.216 29.5701 67.208C26.4501 66.152 23.8581 64.736 21.7941 62.96L24.8181 55.904C29.1381 59.264 33.9381 60.944 39.2181 60.944C45.6981 60.944 48.9381 58.4 48.9381 53.312C48.9381 50.912 48.1221 49.136 46.4901 47.984C44.9061 46.784 42.5781 46.184 39.5061 46.184H31.3701V38.552H38.6421C41.3301 38.552 43.4661 37.904 45.0501 36.608C46.6341 35.264 47.4261 33.416 47.4261 31.064C47.4261 28.856 46.6821 27.176 45.1941 26.024C43.7541 24.872 41.6421 24.296 38.8581 24.296C33.8661 24.296 29.4741 26.024 25.6821 29.48L22.6581 22.568C24.6741 20.648 27.1941 19.16 30.2181 18.104C33.2421 17.048 36.3861 16.52 39.6501 16.52C44.9301 16.52 49.0341 17.72 51.9621 20.12C54.8901 22.472 56.3541 25.76 56.3541 29.984C56.3541 32.72 55.6581 35.12 54.2661 37.184C52.8741 39.248 50.9781 40.736 48.5781 41.648C51.5061 42.464 53.7861 43.976 55.4181 46.184C57.0501 48.344 57.8661 50.984 57.8661 54.104C57.8661 58.616 56.2341 62.192 52.9701 64.832C49.7061 67.424 45.2181 68.72 39.5061 68.72Z" fill="#1A2732"/>
</svg>
