<svg width="88" height="88" viewBox="0 0 88 88" fill="none" xmlns="http://www.w3.org/2000/svg">
<circle cx="56.5" cy="32" r="24" fill="#A9C0D6"/>
<path d="M24.6741 68V61.16L41.0901 43.664C43.2981 41.264 44.8821 39.152 45.8421 37.328C46.8021 35.456 47.2821 33.56 47.2821 31.64C47.2821 26.744 44.3301 24.296 38.4261 24.296C33.8181 24.296 29.5701 26.024 25.6821 29.48L22.5861 22.568C24.6021 20.744 27.1221 19.28 30.1461 18.176C33.1701 17.072 36.3141 16.52 39.5781 16.52C45.0021 16.52 49.1541 17.744 52.0341 20.192C54.9621 22.64 56.4261 26.144 56.4261 30.704C56.4261 33.776 55.6821 36.728 54.1941 39.56C52.7541 42.392 50.4741 45.44 47.3541 48.704L36.1941 60.368H58.3701V68H24.6741Z" fill="#1A2732"/>
</svg>
